<?xml version="1.0" encoding="UTF-8"?>
<svg id="Layer_2" data-name="Layer 2" xmlns="http://www.w3.org/2000/svg" viewBox="0 0 11.44 32.99">
  <defs>
    <style>
      .cls-1 {
        fill: #fff;
      }
    </style>
  </defs>
  <g id="Layer_1-2" data-name="Layer 1">
    <path class="cls-1" d="m5.54,32.99c4.51,0,5.83-5.19,5.89-8.29v-3.8c0-.08,0-.15,0-.23V1.59c0-.88-.71-1.59-1.59-1.59s-1.59.71-1.59,1.59v18.47L.56,26.67c-.33.28-.53.68-.55,1.11-.01.21-.08,2.12,1.32,3.62,1,1.06,2.41,1.59,4.22,1.59Zm2.72-8.75v.42c0,.05-.22,5.15-2.72,5.15-.88,0-1.51-.19-1.89-.58-.21-.21-.32-.47-.39-.7l5-4.29Z"/>
  </g>
</svg>