<?xml version="1.0" encoding="UTF-8"?>
<svg id="Layer_2" data-name="Layer 2" xmlns="http://www.w3.org/2000/svg" viewBox="0 0 19.13 32.99">
  <defs>
    <style>
      .cls-1 {
        fill: #fff;
      }
    </style>
  </defs>
  <g id="Layer_1-2" data-name="Layer 1">
    <path class="cls-1" d="m9.6,29.7c-5.97,0-6.3-5.93-6.32-6.6-.02-.9-.75-1.61-1.64-1.61h-.03c-.91.02-1.63.76-1.61,1.67.06,3.4,2.15,9.83,9.6,9.83s9.53-6.45,9.53-9.86c0-6.95-4.51-9.57-7.89-10.21V1.64c0-.91-.74-1.64-1.64-1.64s-1.64.74-1.64,1.64v12.76c0,.9.73,1.64,1.64,1.64.26,0,6.25.11,6.25,7.08,0,.67-.23,6.58-6.24,6.58Z"/>
  </g>
</svg>