<?xml version="1.0" encoding="UTF-8"?>
<svg id="Layer_2" data-name="Layer 2" xmlns="http://www.w3.org/2000/svg" viewBox="0 0 19.13 32.99">
  <defs>
    <style>
      .cls-1 {
        fill: #fff;
      }
    </style>
  </defs>
  <g id="Layer_1-2" data-name="Layer 1">
    <path class="cls-1" d="m11.25,12.92V1.64c0-.91-.74-1.64-1.64-1.64s-1.64.74-1.64,1.64v12.76c0,.9.73,1.63,1.63,1.64.64.01,6.26.3,6.26,7.08,0,.27-.07,6.57-6.24,6.57-4.22,0-5.62-2.96-6.09-4.93h6.05c.91,0,1.64-.74,1.64-1.64s-.74-1.64-1.64-1.64H1.64c-.44,0-.86.18-1.17.49C.16,22.29,0,22.72,0,23.16c.06,3.4,2.14,9.83,9.6,9.83s9.53-6.45,9.53-9.86c0-6.95-4.51-9.57-7.89-10.21Z"/>
  </g>
</svg>