<?xml version="1.0" encoding="UTF-8"?>
<svg id="Layer_2" data-name="Layer 2" xmlns="http://www.w3.org/2000/svg" viewBox="0 0 19.13 33.2">
  <defs>
    <style>
      .cls-1 {
        fill: #fff;
      }
    </style>
  </defs>
  <g id="Layer_1-2" data-name="Layer 1">
    <path class="cls-1" d="m9.57,33.2c-5.28,0-9.57-4.29-9.57-9.57,0-2.56,1-4.96,2.8-6.76.59-.59,1.56-.59,2.15,0s.59,1.56,0,2.15c-1.23,1.23-1.91,2.87-1.91,4.61,0,3.6,2.93,6.52,6.52,6.52s6.52-2.93,6.52-6.52c0-1.74-.68-3.38-1.96-4.66-.05-.06-1.13-1.16-3.05-1.59v7.43c0,.84-.68,1.52-1.52,1.52s-1.52-.68-1.52-1.52V1.52c0-.84.68-1.52,1.52-1.52s1.52.68,1.52,1.52v12.76c3.33.51,5.2,2.54,5.24,2.59,1.81,1.81,2.8,4.21,2.8,6.76,0,5.27-4.29,9.57-9.57,9.57Z"/>
  </g>
</svg>