<?xml version="1.0" encoding="UTF-8"?>
<svg id="Layer_2" data-name="Layer 2" xmlns="http://www.w3.org/2000/svg" viewBox="0 0 19.13 19.13">
  <defs>
    <style>
      .cls-1 {
        fill: #fff;
      }
    </style>
  </defs>
  <g id="Layer_1-2" data-name="Layer 1">
    <path class="cls-1" d="m18.38,12.78l-6.83-3.78,3.79-6.83c.39-.7.13-1.59-.57-1.98-.7-.39-1.59-.14-1.98.57l-3.79,6.83L2.17,3.8c-.7-.39-1.59-.14-1.98.57-.39.7-.13,1.59.57,1.98l6.83,3.78-3.79,6.83c-.39.7-.13,1.59.57,1.98.22.12.47.18.71.18.51,0,1.01-.27,1.28-.75l3.79-6.83,6.83,3.79c.22.12.47.18.71.18.51,0,1.01-.27,1.28-.75.39-.7.13-1.59-.57-1.98Z"/>
  </g>
</svg>