<?xml version="1.0" encoding="UTF-8"?>
<svg id="Layer_2" data-name="Layer 2" xmlns="http://www.w3.org/2000/svg" viewBox="0 0 19.13 24.93">
  <defs>
    <style>
      .cls-1 {
        fill: #fff;
      }
    </style>
  </defs>
  <g id="Layer_1-2" data-name="Layer 1">
    <path class="cls-1" d="m6.57,23.35c-.04.83.59,1.53,1.42,1.58.03,0,.05,0,.08,0,.79,0,1.45-.62,1.5-1.42l.55-10.32c2.35.1,4.81.53,6.8,1.62.23.13.48.19.72.19.53,0,1.04-.28,1.32-.78.4-.73.13-1.64-.59-2.04-2.44-1.34-5.35-1.86-8.08-1.99l.23-4.4,2.04-1.98c.59-.58.61-1.53.03-2.12-.5-.51-1.26-.56-1.85-.2,0-.79-.62-1.45-1.41-1.49-.84-.04-1.53.59-1.58,1.42l-.16,3.05L.45,11.39c-.48.47-.59,1.21-.27,1.8.32.59,1,.89,1.66.74.05-.01,2.31-.53,5.26-.7l-.54,10.13Zm-1.51-12.48l2.67-3.78-.19,3.58c-.89.04-1.73.11-2.48.2Z"/>
  </g>
</svg>