<?xml version="1.0" encoding="UTF-8"?>
<svg id="Layer_2" data-name="Layer 2" xmlns="http://www.w3.org/2000/svg" viewBox="0 0 16.35 32.99">
  <defs>
    <style>
      .cls-1 {
        fill: #fff;
      }
    </style>
  </defs>
  <g id="Layer_1-2" data-name="Layer 1">
    <path class="cls-1" d="m4.65.57C4.04-.07,3.06-.18,2.31.29c-.75.47-1.06,1.42-.75,2.25.03.07,2.61,7.3-1.52,28.22-.2,1.01.46,1.99,1.47,2.19.12.02.24.04.36.04.87,0,1.65-.62,1.83-1.51,2.31-11.68,2.6-19.35,2.34-24.05l7.1,7.43c.71.75,1.9.77,2.64.06.75-.71.77-1.89.06-2.64L4.65.57Z"/>
  </g>
</svg>