<?xml version="1.0" encoding="UTF-8"?>
<svg id="Layer_2" data-name="Layer 2" xmlns="http://www.w3.org/2000/svg" viewBox="0 0 19.13 24.93">
  <defs>
    <style>
      .cls-1 {
        fill: #fff;
      }
    </style>
  </defs>
  <g id="Layer_1-2" data-name="Layer 1">
    <path class="cls-1" d="m1.5,15c.24,0,.49-.06.72-.19,1.99-1.09,4.45-1.52,6.8-1.62l.55,10.32c.04.8.71,1.42,1.5,1.42.03,0,.05,0,.08,0,.83-.04,1.46-.75,1.42-1.58l-.54-10.13c2.95.17,5.21.69,5.26.7.61.15,1.24-.1,1.59-.62.35-.52.34-1.2-.02-1.7L11.14.65c-.22-.33-.57-.56-.98-.63,0,0,0,0,0,0-.05,0-.11,0-.16-.01-.05,0-.1,0-.15,0,0,0-.02,0-.02,0-.04,0-.07.01-.1.02-.06,0-.11.01-.17.03-.05.01-.09.03-.14.05-.05.02-.09.03-.14.05-.05.02-.1.05-.15.08-.03.02-.06.03-.09.05,0,0-.01.01-.02.01-.05.04-.09.08-.14.12-.03.03-.06.05-.09.08-.04.04-.07.09-.1.13-.03.03-.05.07-.08.1-.03.05-.05.1-.07.15-.02.04-.04.07-.05.11-.02.05-.03.11-.04.16-.01.04-.02.08-.03.12,0,.05,0,.09-.01.14,0,.05,0,.1,0,.16,0,0,0,.02,0,.03l.46,8.62c-2.73.13-5.64.65-8.08,1.99-.73.4-.99,1.31-.59,2.04.27.5.79.78,1.32.78Zm10.36-4.8l-.19-3.58,2.67,3.78c-.75-.09-1.59-.16-2.48-.2Z"/>
  </g>
</svg>