<?xml version="1.0" encoding="UTF-8"?>
<svg id="Layer_2" data-name="Layer 2" xmlns="http://www.w3.org/2000/svg" viewBox="0 0 13.63 24.71">
  <defs>
    <style>
      .cls-1 {
        fill: #fff;
      }
    </style>
  </defs>
  <g id="Layer_1-2" data-name="Layer 1">
    <path class="cls-1" d="m13.27.67c-.59-.76-1.68-.9-2.44-.31l-2.07,1.61s0,0,0,0L.67,8.23c-.76.59-.9,1.68-.31,2.44.34.44.86.67,1.38.67.37,0,.75-.12,1.06-.36l5.44-4.22c.14,4.88,0,12.26-1.49,15.47-.41.87-.03,1.91.84,2.31.24.11.49.16.74.16.65,0,1.28-.37,1.58-1,2.31-4.95,1.89-16.21,1.71-19.55l1.34-1.04c.76-.59.9-1.68.31-2.44Z"/>
  </g>
</svg>