<?xml version="1.0" encoding="UTF-8"?>
<svg id="Layer_2" data-name="Layer 2" xmlns="http://www.w3.org/2000/svg" viewBox="0 0 19.13 27.61">
  <defs>
    <style>
      .cls-1 {
        fill: #fff;
      }
    </style>
  </defs>
  <g id="Layer_1-2" data-name="Layer 1">
    <path class="cls-1" d="m2.74.02c-.48-.08-.97.06-1.34.36-.37.31-.6.76-.61,1.24L0,25.87c-.03.93.7,1.71,1.63,1.74.02,0,.04,0,.06,0,.9,0,1.65-.72,1.68-1.63l.72-22.13c3.33,1.11,10.03,4.44,11.71,13.57.17.92,1.05,1.52,1.96,1.35.91-.17,1.52-1.05,1.35-1.96C16.45,2.4,2.87.04,2.74.02Z"/>
  </g>
</svg>