<?xml version="1.0" encoding="UTF-8"?>
<svg id="Layer_2" data-name="Layer 2" xmlns="http://www.w3.org/2000/svg" viewBox="0 0 25.68 26.08">
  <defs>
    <style>
      .cls-1 {
        fill: #fff;
      }
    </style>
  </defs>
  <g id="Layer_1-2" data-name="Layer 1">
    <path class="cls-1" d="m1.07,1.43C5.71-.24,9.69-.29,13.02.48c.16.02.32.05.46.12,7.9,2.05,11.92,8.71,11.98,8.81.45.77.19,1.76-.58,2.21-.26.15-.54.22-.82.22-.55,0-1.09-.28-1.4-.8-.17-.29-2.87-4.72-8.21-6.77v20.19c0,.89-.73,1.62-1.62,1.62s-1.62-.72-1.62-1.62V3.41c-2.58-.39-5.59-.18-9.06,1.06-.84.3-1.77-.14-2.07-.98-.3-.84.14-1.77.98-2.07Z"/>
  </g>
</svg>