<?xml version="1.0" encoding="UTF-8"?>
<svg id="Layer_2" data-name="Layer 2" xmlns="http://www.w3.org/2000/svg" viewBox="0 0 19.13 24.89">
  <defs>
    <style>
      .cls-1 {
        fill: #fff;
      }
    </style>
  </defs>
  <g id="Layer_1-2" data-name="Layer 1">
    <path class="cls-1" d="m9.57,0C4.29,0,0,4.29,0,9.57c0,4.69,3.39,8.59,7.85,9.4-.23,1.1-.73,2.44-1.74,3.1-.71.47-.9,1.42-.43,2.12.29.45.78.69,1.28.69.29,0,.58-.08.84-.25,2.15-1.42,2.89-4,3.15-5.61,4.62-.68,8.18-4.65,8.18-9.45C19.13,4.29,14.84,0,9.57,0ZM3.06,9.57c0-3.06,2.12-5.62,4.97-6.31v12.63c-2.85-.69-4.97-3.26-4.97-6.31Zm8.03,6.31V3.25c2.85.69,4.97,3.26,4.97,6.31s-2.12,5.62-4.97,6.31Z"/>
  </g>
</svg>