<?xml version="1.0" encoding="UTF-8"?>
<svg id="Layer_2" data-name="Layer 2" xmlns="http://www.w3.org/2000/svg" viewBox="0 0 19.13 32.99">
  <defs>
    <style>
      .cls-1 {
        fill: #fff;
      }
    </style>
  </defs>
  <g id="Layer_1-2" data-name="Layer 1">
    <path class="cls-1" d="m18.6,20.22c-2.97-2.49-6.06-3.36-8.87-3.34-.05,0-.1-.02-.16-.02-.09,0-.18.01-.26.03-.86.03-1.7.15-2.49.32l3.92-4.83c.22-.27.34-.6.34-.95V1.5c0-.83-.67-1.5-1.5-1.5s-1.5.67-1.5,1.5v9.4L.33,20.42c-.49.6-.44,1.47.11,2.01.55.54,1.42.58,2.01.09.16-.14,2.42-1.96,5.61-2.51v11.48c0,.83.67,1.5,1.5,1.5s1.5-.67,1.5-1.5v-11.54c1.77.23,3.69.97,5.6,2.57.28.24.62.35.96.35.43,0,.85-.18,1.15-.54.53-.63.45-1.58-.19-2.11Z"/>
  </g>
</svg>