<?xml version="1.0" encoding="UTF-8"?>
<svg id="Layer_2" data-name="Layer 2" xmlns="http://www.w3.org/2000/svg" viewBox="0 0 19.13 25.89">
  <defs>
    <style>
      .cls-1 {
        fill: #fff;
      }
    </style>
  </defs>
  <g id="Layer_1-2" data-name="Layer 1">
    <path class="cls-1" d="m17.94,14.18l-6.16-.86c.76-6.64,3.83-11.06,3.88-11.12.45-.62.3-1.49-.32-1.94-.62-.45-1.49-.31-1.94.32-.21.29-3.58,5.09-4.41,12.35l-1.47-.2c.87-6.31,3.76-10.46,3.81-10.53.45-.62.3-1.49-.32-1.94-.62-.45-1.49-.31-1.94.32-.2.28-3.4,4.83-4.34,11.76l-3.15-.44c-.75-.11-1.46.42-1.57,1.18-.11.76.42,1.46,1.18,1.57l3.3.46c-.11,2.98.23,6.29,1.37,9.82.19.59.74.97,1.32.97.14,0,.28-.02.42-.07.73-.23,1.13-1.02.9-1.75-.98-3.06-1.3-5.96-1.22-8.58l1.52.21c-.04,2.82.33,5.92,1.38,9.22.19.59.74.97,1.32.97.14,0,.28-.02.42-.07.73-.23,1.13-1.02.9-1.75-.91-2.83-1.24-5.52-1.23-7.98l5.95.83c.07,0,.13.01.19.01.68,0,1.28-.5,1.37-1.2.11-.76-.42-1.46-1.18-1.57Z"/>
  </g>
</svg>