<?xml version="1.0" encoding="UTF-8"?>
<svg id="Layer_2" data-name="Layer 2" xmlns="http://www.w3.org/2000/svg" viewBox="0 0 10.86 32.99">
  <defs>
    <style>
      .cls-1 {
        fill: #fff;
      }
    </style>
  </defs>
  <g id="Layer_1-2" data-name="Layer 1">
    <g>
      <path class="cls-1" d="m10.8,14.3V1.61c0-.89-.72-1.61-1.61-1.61s-1.61.72-1.61,1.61v12.69c0,.89.72,1.61,1.61,1.61s1.61-.72,1.61-1.61Z"/>
      <path class="cls-1" d="m1.81,6.61c-1,0-1.81.81-1.81,1.81v6.46c0,.4.14.8.39,1.12l6.86,8.74v6.44c0,1,.81,1.81,1.81,1.81s1.81-.81,1.81-1.81v-7.06c0-.4-.14-.8-.39-1.12L3.62,14.26v-5.83c0-1-.81-1.81-1.81-1.81Z"/>
    </g>
  </g>
</svg>