<?xml version="1.0" encoding="UTF-8"?>
<svg id="Layer_2" data-name="Layer 2" xmlns="http://www.w3.org/2000/svg" viewBox="0 0 19.13 29.93">
  <defs>
    <style>
      .cls-1 {
        fill: #fff;
      }
    </style>
  </defs>
  <g id="Layer_1-2" data-name="Layer 1">
    <path class="cls-1" d="m8.04,16.64v11.77c0,.84.68,1.52,1.52,1.52s1.52-.68,1.52-1.52v-11.77c4.55-.73,8.05-4.68,8.05-9.43,0-2.56-1-4.96-2.8-6.76-.59-.59-1.56-.59-2.15,0-.59.59-.59,1.56,0,2.15,1.23,1.23,1.91,2.87,1.91,4.61,0,3.6-2.93,6.52-6.52,6.52s-6.52-2.93-6.52-6.52c0-1.74.68-3.38,1.91-4.61.59-.59.59-1.56,0-2.15C4.36-.15,3.4-.15,2.8.45,1,2.25,0,4.65,0,7.21c0,4.76,3.49,8.7,8.04,9.43Z"/>
  </g>
</svg>