<?xml version="1.0" encoding="UTF-8"?>
<svg id="Layer_2" data-name="Layer 2" xmlns="http://www.w3.org/2000/svg" viewBox="0 0 19.13 30.73">
  <defs>
    <style>
      .cls-1 {
        fill: #fff;
      }
    </style>
  </defs>
  <g id="Layer_1-2" data-name="Layer 1">
    <g>
      <path class="cls-1" d="m9.57,0C4.29,0,0,4.29,0,9.57c0,4.75,3.49,8.7,8.03,9.43v10.2c0,.85.69,1.53,1.53,1.53s1.53-.69,1.53-1.53v-10.2c4.55-.74,8.03-4.68,8.03-9.43C19.13,4.29,14.84,0,9.57,0Zm0,16.07c-3.59,0-6.5-2.92-6.5-6.5s2.92-6.5,6.5-6.5,6.5,2.92,6.5,6.5-2.92,6.5-6.5,6.5Z"/>
      <path class="cls-1" d="m9.57,11.3c.96,0,1.74-.78,1.74-1.74s-.78-1.74-1.74-1.74-1.74.78-1.74,1.74.78,1.74,1.74,1.74Z"/>
    </g>
  </g>
</svg>