<?xml version="1.0" encoding="UTF-8"?>
<svg id="Layer_2" data-name="Layer 2" xmlns="http://www.w3.org/2000/svg" viewBox="0 0 19.15 32.99">
  <defs>
    <style>
      .cls-1 {
        fill: #fff;
      }
    </style>
  </defs>
  <g id="Layer_1-2" data-name="Layer 1">
    <path class="cls-1" d="m.39,20.4c-.13.14-.23.3-.29.48,0,.01,0,.03-.01.04-.05.16-.09.33-.08.51,0,0,0,.02,0,.02,0,0,0,.02,0,.03.01.19.05.37.13.54,0,0,0,0,0,.01.08.18.19.33.33.46,0,0,0,0,0,.01,0,0,.02,0,.02.01.13.12.28.21.45.28.01,0,.03,0,.04.01.16.06.33.09.51.09h.03l6.37-.11v8.7c0,.83.67,1.5,1.5,1.5s1.5-.67,1.5-1.5v-8.75s6.78-.12,6.78-.12c.83-.01,1.49-.7,1.47-1.53-.01-.82-.68-1.47-1.5-1.47h-.03l-6.73.11v-6.77c0-.1.01-.19,0-.29V1.5c0-.83-.67-1.5-1.5-1.5s-1.5.67-1.5,1.5v10.79S.4,20.38.4,20.38c0,0,0,.01-.01.02Zm7.51-.61l-2.91.05,2.91-3.14v3.09Z"/>
  </g>
</svg>