<?xml version="1.0" encoding="UTF-8"?>
<svg id="Layer_2" data-name="Layer 2" xmlns="http://www.w3.org/2000/svg" viewBox="0 0 19.13 33.27">
  <defs>
    <style>
      .cls-1 {
        fill: #fff;
      }
    </style>
  </defs>
  <g id="Layer_1-2" data-name="Layer 1">
    <g>
      <path class="cls-1" d="m18.39,17.86c-4.36-2.1-8.41-1.65-11.56-.51,3.83-7.25,3.14-15.7,3.1-16.15-.06-.72-.68-1.25-1.42-1.19-.72.06-1.26.7-1.19,1.42.01.13,1,12.51-6.23,19.22-.45.37-.69.61-.7.62-.5.5-.51,1.3-.04,1.81.26.28.61.43.97.43.3,0,.59-.1.84-.3.29-.24.57-.49.84-.74,1.99-1.62,7.67-5.41,14.26-2.24.65.31,1.44.04,1.75-.61.31-.65.04-1.44-.61-1.75Z"/>
      <path class="cls-1" d="m9.52,33.27c.73,0,1.31-.59,1.31-1.31v-8.16c1.63-.22,3.32.03,4.77,1.21.56.46,1.39.38,1.85-.18.46-.56.38-1.39-.18-1.85-6.09-4.99-14.31,1.42-14.65,1.7-.57.45-.66,1.28-.21,1.85.26.33.64.5,1.03.5.29,0,.57-.09.82-.28.03-.03,1.72-1.34,3.96-2.23v7.46c0,.73.59,1.31,1.31,1.31Z"/>
    </g>
  </g>
</svg>