<?xml version="1.0" encoding="UTF-8"?>
<svg id="Layer_2" data-name="Layer 2" xmlns="http://www.w3.org/2000/svg" viewBox="0 0 14.9 32.99">
  <defs>
    <style>
      .cls-1 {
        fill: #fff;
      }
    </style>
  </defs>
  <g id="Layer_1-2" data-name="Layer 1">
    <g>
      <path class="cls-1" d="m2.69,22.19c.2.1.42.15.63.15.52,0,1.02-.29,1.26-.78.35-.7.07-1.54-.63-1.89-1.59-.79-1.12-2.5-.92-3.03l5.19-7.92c.15-.23.23-.5.23-.77V1.41c0-.78-.63-1.41-1.41-1.41s-1.41.63-1.41,1.41v6.12L.59,15.22c-.05.07-.09.14-.12.22-.68,1.61-1.1,5.09,2.22,6.75Z"/>
      <path class="cls-1" d="m12.2,10.8c-.7-.35-1.54-.07-1.89.63-.35.7-.07,1.54.63,1.89,1.59.79,1.12,2.5.92,3.03l-5.19,7.92c-.15.23-.23.5-.23.77v6.54c0,.78.63,1.41,1.41,1.41s1.41-.63,1.41-1.41v-6.12l5.04-7.69c.05-.07.09-.14.12-.22.68-1.61,1.1-5.09-2.22-6.75Z"/>
    </g>
  </g>
</svg>