<?xml version="1.0" encoding="UTF-8"?>
<svg id="Layer_2" data-name="Layer 2" xmlns="http://www.w3.org/2000/svg" viewBox="0 0 19.13 32.97">
  <defs>
    <style>
      .cls-1 {
        fill: #fff;
      }
    </style>
  </defs>
  <g id="Layer_1-2" data-name="Layer 1">
    <g>
      <path class="cls-1" d="m1.5,22.87c.27,0,.54-.07.79-.23.33-.2.66-.44.99-.7.98-.63,2.75-1.58,4.92-1.94v11.48c0,.83.67,1.5,1.5,1.5s1.5-.67,1.5-1.5v-11.53c1.75.23,3.61.97,5.45,2.56.62.54,1.57.47,2.12-.15.54-.63.47-1.57-.15-2.12-2.91-2.51-5.97-3.39-8.78-3.37-.04,0-.09-.01-.13-.01-.07,0-.14.01-.2.02-.58.02-1.16.07-1.71.16,1.81-2.44,3.12-4.67,3.21-4.84.13-.23.2-.49.2-.75V1.5c0-.83-.67-1.5-1.5-1.5s-1.5.67-1.5,1.5v9.52c-1.19,1.99-4.03,6.27-6.56,8.38-.41.27-.77.54-1.09.8-.61.5-.73,1.39-.27,2.03.29.41.75.63,1.22.63Z"/>
      <path class="cls-1" d="m15.99,8.24l-3.87,4.85c-.52.65-.41,1.59.24,2.11.28.22.61.33.93.33.44,0,.88-.19,1.17-.56l3.87-4.85c.52-.65.41-1.59-.24-2.11-.64-.52-1.59-.41-2.11.24Z"/>
    </g>
  </g>
</svg>