<?xml version="1.0" encoding="UTF-8"?>
<svg id="Layer_2" data-name="Layer 2" xmlns="http://www.w3.org/2000/svg" viewBox="0 0 16.14 32.96">
  <defs>
    <style>
      .cls-1 {
        fill: #fff;
      }
    </style>
  </defs>
  <g id="Layer_1-2" data-name="Layer 1">
    <g>
      <path class="cls-1" d="m14.63,10.94c.83,0,1.51.68,1.51,1.51v5.39c0,.34-.11.67-.32.93l-5.72,7.3v5.37c0,.83-.68,1.51-1.51,1.51s-1.51-.68-1.51-1.51v-5.89c0-.34.11-.67.32-.93l5.72-7.3v-4.87c0-.83.68-1.51,1.51-1.51Z"/>
      <path class="cls-1" d="m4.79,19.87c2.92,0,4.8-3.8,5.16-4.56.09-.2.14-.43.14-.65V1.57c0-.86-.7-1.57-1.57-1.57s-1.57.7-1.57,1.57v8.65s-5.38-.05-5.38-.05c-.43-.01-.82.16-1.12.45S0,11.31,0,11.73v2.92c0,.19.04.39.11.57.44,1.13,1.78,4.56,4.59,4.65.03,0,.07,0,.1,0Zm0-3.13s0,0,0,0c-.2,0-.86-.45-1.66-2.39v-1.04l3.83.04v.94c-.66,1.28-1.67,2.44-2.16,2.44Z"/>
    </g>
  </g>
</svg>