<?xml version="1.0" encoding="UTF-8"?>
<svg id="Layer_2" data-name="Layer 2" xmlns="http://www.w3.org/2000/svg" viewBox="0 0 16.14 32.96">
  <defs>
    <style>
      .cls-1 {
        fill: #fff;
      }
    </style>
  </defs>
  <g id="Layer_1-2" data-name="Layer 1">
    <g>
      <path class="cls-1" d="m14.63,22.02c.83,0,1.51-.68,1.51-1.51v-5.39c0-.34-.11-.67-.32-.93l-5.72-7.3V1.51c0-.83-.68-1.51-1.51-1.51s-1.51.68-1.51,1.51v5.89c0,.34.11.67.32.93l5.72,7.3v4.87c0,.83.68,1.51,1.51,1.51Z"/>
      <path class="cls-1" d="m4.7,13.1c-2.81.08-4.15,3.52-4.59,4.65-.07.18-.11.37-.11.57v2.92c0,.42.17.82.46,1.11s.69.46,1.12.45l5.38-.05v8.65c0,.86.7,1.57,1.57,1.57s1.57-.7,1.57-1.57v-13.08c0-.22-.05-.45-.14-.65-.35-.77-2.24-4.56-5.16-4.56-.03,0-.06,0-.1,0Zm2.26,5.57v.94l-3.83.04v-1.04c.79-1.93,1.46-2.38,1.66-2.39,0,0,0,0,0,0,.49,0,1.51,1.17,2.16,2.44Z"/>
    </g>
  </g>
</svg>