<?xml version="1.0" encoding="UTF-8"?>
<svg id="Layer_2" data-name="Layer 2" xmlns="http://www.w3.org/2000/svg" viewBox="0 0 19.13 32.99">
  <defs>
    <style>
      .cls-1 {
        fill: #fff;
      }
    </style>
  </defs>
  <g id="Layer_1-2" data-name="Layer 1">
    <path class="cls-1" d="m17.42,21.13c.94,0,1.71-.77,1.71-1.71v-3.95c0-.44-.17-.87-.48-1.19l-7.27-7.56V1.71c0-.94-.77-1.71-1.71-1.71s-1.71.77-1.71,1.71v5.07L1.53,14.36s-.08.1-.11.15c-.13.19-3.1,4.71-.03,9.55.31.49.86.79,1.44.79h5.13v6.42c0,.94.77,1.71,1.71,1.71s1.71-.77,1.71-1.71v-14.59c0-.94-.77-1.71-1.71-1.71s-1.71.77-1.71,1.71v4.75H3.85c-1.04-2.41.12-4.56.36-4.95l5.54-6.52,5.96,6.2v3.26c0,.94.77,1.71,1.71,1.71Z"/>
  </g>
</svg>