<?xml version="1.0" encoding="UTF-8"?>
<svg id="Layer_2" data-name="Layer 2" xmlns="http://www.w3.org/2000/svg" viewBox="0 0 10.8 32.99">
  <defs>
    <style>
      .cls-1 {
        fill: #fff;
      }
    </style>
  </defs>
  <g id="Layer_1-2" data-name="Layer 1">
    <path class="cls-1" d="m3.5,31.39c0,.88-.78,1.6-1.75,1.6S0,32.27,0,31.39v-12.72c0-.88.78-1.6,1.75-1.6s1.75.71,1.75,1.6v4.99c.77.37,2.16.78,3.79-.01v-4.58S.21,7.14.21,7.14C.07,6.91,0,6.65,0,6.38V1.6C0,.71.78,0,1.75,0s1.75.71,1.75,1.6v4.38s7.09,11.94,7.09,11.94c.14.23.21.49.21.76v5.85c0,.5-.26.98-.7,1.28-2.38,1.62-4.74,1.71-6.59,1.26v4.32Z"/>
  </g>
</svg>