<?xml version="1.0" encoding="UTF-8"?>
<svg id="Layer_2" data-name="Layer 2" xmlns="http://www.w3.org/2000/svg" viewBox="0 0 11.62 27.17">
  <defs>
    <style>
      .cls-1 {
        fill: #fff;
      }
    </style>
  </defs>
  <g id="Layer_1-2" data-name="Layer 1">
    <g>
      <path class="cls-1" d="m0,21.88c-.01.22-.09,2.16,1.34,3.68,1.01,1.07,2.45,1.62,4.28,1.62,4.59,0,5.92-5.27,5.99-8.42v-3.86c0-.08,0-.16,0-.23V1.61c0-.89-.72-1.61-1.61-1.61s-1.61.72-1.61,1.61v12.42L.56,20.75c-.33.28-.53.69-.56,1.13Zm8.39-3.59v.43c0,.05-.24,5.24-2.76,5.24-.89,0-1.54-.2-1.92-.59-.21-.22-.33-.48-.4-.71l5.08-4.36Z"/>
      <path class="cls-1" d="m4.73,4.72c-.85-.28-1.76.18-2.04,1.02L.08,13.63c-.28.85.18,1.76,1.02,2.04.17.06.34.08.51.08.68,0,1.31-.43,1.53-1.11l2.61-7.89c.28-.85-.18-1.76-1.02-2.04Z"/>
    </g>
  </g>
</svg>