<?xml version="1.0" encoding="UTF-8"?>
<svg id="Layer_2" data-name="Layer 2" xmlns="http://www.w3.org/2000/svg" viewBox="0 0 19.13 32.99">
  <defs>
    <style>
      .cls-1 {
        fill: #fff;
      }
    </style>
  </defs>
  <g id="Layer_1-2" data-name="Layer 1">
    <path class="cls-1" d="m10.38,32.99c-.89,0-1.61-.69-1.61-1.53v-7.67c0-.13,0-.27,0-.4-1.9-.16-4.36.54-5.77,1.07-.27.12-.55.24-.84.34-.81.29-1.71-.09-2.04-.85-.33-.76.02-1.63.8-1.98.12-.05.41-.18.83-.34C9.72,17.89,8.78,1.79,8.77,1.63c-.05-.84.62-1.57,1.5-1.62.88-.06,1.65.59,1.7,1.43.04.61.7,11.97-4.1,18.86.44-.01.88,0,1.32.05.38-1.36,1.02-2.44,1.91-3.24,1.46-1.3,3.07-1.35,3.49-1.34,1.84.01,4.54,1.22,4.54,4.5s-2.55,4.51-4.3,4.61c-.35.03-1.35.06-2.85-.42v6.99c0,.85-.72,1.53-1.61,1.53Zm1.88-11.71c1.44.6,2.27.55,2.28.55.67-.05,1.38-.36,1.38-1.56,0-.92-.46-1.4-1.38-1.43-.07,0-.7,0-1.29.56-.35.33-.74.9-.99,1.88Z"/>
  </g>
</svg>