<?xml version="1.0" encoding="UTF-8"?>
<svg id="Layer_2" data-name="Layer 2" xmlns="http://www.w3.org/2000/svg" viewBox="0 0 19.13 30.36">
  <defs>
    <style>
      .cls-1 {
        fill: #fff;
      }
    </style>
  </defs>
  <g id="Layer_1-2" data-name="Layer 1">
    <path class="cls-1" d="m0,9.57c0,4.75,3.49,8.7,8.03,9.43v9.83c0,.85.69,1.53,1.53,1.53s1.53-.69,1.53-1.53v-9.83c4.55-.74,8.03-4.68,8.03-9.43C19.13,4.29,14.84,0,9.57,0S0,4.29,0,9.57Zm16.07,0c0,3.06-2.12,5.62-4.97,6.31v-6.11c0-.85-.69-1.53-1.53-1.53s-1.53.69-1.53,1.53v6.11c-2.85-.69-4.97-3.26-4.97-6.31,0-3.59,2.92-6.5,6.5-6.5s6.5,2.92,6.5,6.5Z"/>
  </g>
</svg>