<?xml version="1.0" encoding="UTF-8"?>
<svg id="Layer_2" data-name="Layer 2" xmlns="http://www.w3.org/2000/svg" viewBox="0 0 16.78 32.93">
  <defs>
    <style>
      .cls-1 {
        fill: #fff;
      }
    </style>
  </defs>
  <g id="Layer_1-2" data-name="Layer 1">
    <path class="cls-1" d="m15.44,14.6l-5.64-6.65V1.5c0-.83-.67-1.5-1.5-1.5s-1.5.67-1.5,1.5v6.4L.42,14.53c-.27.28-.42.65-.42,1.04v3.47c0,.83.67,1.5,1.5,1.5s1.5-.67,1.5-1.5v-2.86l5.23-5.44,4.86,5.72c.22.36,1.22,2.24.32,4.34h-3.6v-4.17c0-.83-.67-1.5-1.5-1.5s-1.5.67-1.5,1.5v14.8c0,.83.67,1.5,1.5,1.5s1.5-.67,1.5-1.5v-7.63h4.5c.51,0,.99-.26,1.27-.7,2.69-4.25.09-8.21-.02-8.38-.03-.05-.06-.09-.1-.13Z"/>
  </g>
</svg>