<?xml version="1.0" encoding="UTF-8"?>
<svg id="Layer_2" data-name="Layer 2" xmlns="http://www.w3.org/2000/svg" viewBox="0 0 16.78 32.93">
  <defs>
    <style>
      .cls-1 {
        fill: #fff;
      }
    </style>
  </defs>
  <g id="Layer_1-2" data-name="Layer 1">
    <path class="cls-1" d="m1.34,18.34l5.64,6.65v6.45c0,.83.67,1.5,1.5,1.5s1.5-.67,1.5-1.5v-6.4l6.38-6.63c.27-.28.42-.65.42-1.04v-3.47c0-.83-.67-1.5-1.5-1.5s-1.5.67-1.5,1.5v2.86l-5.23,5.44-4.86-5.72c-.22-.36-1.22-2.24-.32-4.34h3.6v4.17c0,.83.67,1.5,1.5,1.5s1.5-.67,1.5-1.5V1.5c0-.83-.67-1.5-1.5-1.5s-1.5.67-1.5,1.5v7.63H2.48c-.51,0-.99.26-1.27.7-2.69,4.25-.09,8.21.02,8.38.03.05.06.09.1.13Z"/>
  </g>
</svg>