<?xml version="1.0" encoding="UTF-8"?>
<svg id="Layer_2" data-name="Layer 2" xmlns="http://www.w3.org/2000/svg" viewBox="0 0 19.13 30.98">
  <defs>
    <style>
      .cls-1 {
        fill: #fff;
      }
    </style>
  </defs>
  <g id="Layer_1-2" data-name="Layer 1">
    <g>
      <path class="cls-1" d="m17.42,7.85c0-4.33-3.52-7.85-7.85-7.85S1.71,3.52,1.71,7.85s3.52,7.85,7.85,7.85,7.85-3.52,7.85-7.85Zm-12.64,0c0-2.64,2.15-4.79,4.79-4.79s4.79,2.15,4.79,4.79-2.15,4.79-4.79,4.79-4.79-2.15-4.79-4.79Z"/>
      <path class="cls-1" d="m19.13,19.66c0-.85-.69-1.53-1.53-1.53H1.53c-.85,0-1.53.69-1.53,1.53s.69,1.53,1.53,1.53h6.5v8.25c0,.85.69,1.53,1.53,1.53s1.53-.69,1.53-1.53v-8.25h6.5c.85,0,1.53-.69,1.53-1.53Z"/>
    </g>
  </g>
</svg>