<?xml version="1.0" encoding="UTF-8"?>
<svg id="Layer_2" data-name="Layer 2" xmlns="http://www.w3.org/2000/svg" viewBox="0 0 23.1 32.99">
  <defs>
    <style>
      .cls-1 {
        fill: #fff;
      }
    </style>
  </defs>
  <g id="Layer_1-2" data-name="Layer 1">
    <g>
      <path class="cls-1" d="m9.9,0c-.88,0-1.6.71-1.6,1.6v18.39L.56,26.63c-.33.28-.53.68-.55,1.12-.01.21-.09,2.14,1.33,3.64,1,1.06,2.43,1.6,4.24,1.6,4.54,0,5.86-5.22,5.92-8.34v-3.2l7.18-6.16c.67-.57.75-1.58.17-2.25-.57-.67-1.58-.75-2.25-.17l-5.1,4.37V1.6c0-.88-.71-1.6-1.6-1.6Zm-1.6,24.61c0,.05-.24,5.18-2.73,5.18-.88,0-1.52-.2-1.9-.58-.21-.21-.33-.48-.39-.71l5.02-4.31v.42Z"/>
      <path class="cls-1" d="m20.46,20.84l-6.12,5.28c-.67.58-.74,1.58-.17,2.25.32.37.76.55,1.21.55.37,0,.74-.13,1.04-.39l6.12-5.28c.67-.58.74-1.58.17-2.25-.58-.67-1.58-.74-2.25-.17Z"/>
    </g>
  </g>
</svg>