<?xml version="1.0" encoding="UTF-8"?>
<svg id="Layer_2" data-name="Layer 2" xmlns="http://www.w3.org/2000/svg" viewBox="0 0 19.31 33.09">
  <defs>
    <style>
      .cls-1 {
        fill: #fff;
      }
    </style>
  </defs>
  <g id="Layer_1-2" data-name="Layer 1">
    <path class="cls-1" d="m18.38,12.64c-.57-.26-1.24-.17-1.71.24l-5.12,4.39V1.6c0-.89-.72-1.6-1.6-1.6s-1.6.72-1.6,1.6v18.43L.56,26.71c-.33.28-.53.69-.56,1.12-.01.21-.09,2.15,1.33,3.65,1.01,1.07,2.44,1.61,4.26,1.61,4.56,0,5.88-5.24,5.95-8.37v-3.21l4.56-3.91v10.16c0,.89.72,1.6,1.6,1.6s1.6-.72,1.6-1.6v-13.65c0-.63-.36-1.2-.93-1.46Zm-10.04,12.04c0,.05-.24,5.2-2.74,5.2-.89,0-1.53-.2-1.91-.58-.21-.22-.33-.48-.4-.71l5.05-4.33v.42Z"/>
  </g>
</svg>