<?xml version="1.0" encoding="UTF-8"?>
<svg id="Layer_2" data-name="Layer 2" xmlns="http://www.w3.org/2000/svg" viewBox="0 0 19.13 29.41">
  <defs>
    <style>
      .cls-1 {
        fill: #fff;
      }
    </style>
  </defs>
  <g id="Layer_1-2" data-name="Layer 1">
    <path class="cls-1" d="m11.3,10.96V1.74c0-.96-.78-1.74-1.74-1.74s-1.74.78-1.74,1.74v8.98c-3.21,2.48-7.83,6.52-7.83,9.19v7.53c0,.96.78,1.74,1.74,1.74s1.74-.78,1.74-1.74v-7.46c.19-.91,2.84-3.6,5.94-6.08,3.23,2.55,6.05,5.38,6.25,6.26v7.53c0,.96.78,1.74,1.74,1.74s1.74-.78,1.74-1.74v-7.53c0-2.67-4.62-6.71-7.83-9.19Z"/>
  </g>
</svg>