<?xml version="1.0" encoding="UTF-8"?>
<svg id="Layer_2" data-name="Layer 2" xmlns="http://www.w3.org/2000/svg" viewBox="0 0 19.13 32.99">
  <defs>
    <style>
      .cls-1 {
        fill: #fff;
      }
    </style>
  </defs>
  <g id="Layer_1-2" data-name="Layer 1">
    <path class="cls-1" d="m1.53,23.27c.27,0,.53-.07.78-.21.04-.02,2.65-1.22,5.71-1.95v10.33c0,.85.69,1.54,1.54,1.54s1.54-.69,1.54-1.54v-10.82c2.02-.15,3.74,0,5.97.79.62.22,1.32.02,1.73-.51.41-.53.43-1.25.06-1.8-3.67-5.4-4.74-6.01-5.14-6.16-.8-.3-1.68.11-1.98.91-.27.74.22,1.31.74,1.9l1.52,1.83c-3.21-.35-6.18.17-8.49.85C9.56,12.7,11.1,1.96,11.1,1.55c0-.85-.68-1.54-1.53-1.55h-.01c-.84,0-1.53.68-1.54,1.53,0,.11-1.46,11.72-7.64,19.19-.48.58-.51,1.41-.03,2,.3.37.74.56,1.19.56Z"/>
  </g>
</svg>