<?xml version="1.0" encoding="UTF-8"?>
<svg id="Layer_2" data-name="Layer 2" xmlns="http://www.w3.org/2000/svg" viewBox="0 0 19.13 32.99">
  <defs>
    <style>
      .cls-1 {
        fill: #fff;
      }
    </style>
  </defs>
  <g id="Layer_1-2" data-name="Layer 1">
    <g>
      <path class="cls-1" d="m1.54,20.69c.27,0,.53-.07.78-.21.07-.04,7.39-4.24,14.76-1.64.63.22,1.32.02,1.73-.51s.43-1.25.06-1.8c-3.81-5.67-4.74-6.01-5.14-6.16-.8-.29-1.68.11-1.98.91-.27.74.06,1.55.74,1.9.28.23.85.93,1.52,1.83-3.21-.35-6.18.17-8.49.85C9.56,9.38,11.1,1.96,11.1,1.55c0-.85-.68-1.54-1.53-1.55h-.01c-.84,0-1.53.68-1.54,1.53,0,.11-2.66,10.65-7.64,16.61-.48.58-.51,1.41-.03,2,.3.37.74.56,1.19.56Z"/>
      <path class="cls-1" d="m9.4,32.98c.85.07,1.59-.56,1.67-1.4l.06-9.03c1.93-.09,3.7.36,5.27,1.89.61.59,1.58.58,2.18-.03s.58-1.58-.03-2.18c-6.61-6.44-16.85.23-17.28.51-.71.47-.9,1.43-.43,2.13.27.41.7.64,1.15.68.33.03.68-.05.98-.25.04-.03,2.33-1.4,5.03-2.2v8.2c-.06.85.56,1.59,1.41,1.67Z"/>
    </g>
  </g>
</svg>