<?xml version="1.0" encoding="UTF-8"?>
<svg id="Layer_2" data-name="Layer 2" xmlns="http://www.w3.org/2000/svg" viewBox="0 0 19.14 32.99">
  <defs>
    <style>
      .cls-1 {
        fill: #fff;
      }
    </style>
  </defs>
  <g id="Layer_1-2" data-name="Layer 1">
    <g>
      <path class="cls-1" d="m18.87,16.53c.41.52.35,1.28-.06,1.8s-1.1.73-1.73.51c-7.37-2.61-14.69,1.6-14.76,1.64-.24.14-.51.21-.78.21-.45,0-.89-.19-1.19-.56-.48-.58-.45-1.42.03-2C5.36,12.18,8.02,1.64,8.02,1.53c0-.85.7-1.53,1.54-1.53h.01c.85,0,1.53.7,1.53,1.55,0,.4-1.54,7.83-5.59,14.31,2.31-.68,5.28-1.2,8.49-.85,0,0,4.19.67,4.86,1.52Z"/>
      <path class="cls-1" d="m9.4,32.98c.85.07,1.59-.56,1.67-1.4l.06-9.03c1.93-.09,3.7.36,5.27,1.89.61.59,1.58.58,2.18-.03s.58-1.58-.03-2.18c-6.61-6.44-16.85.23-17.28.51-.71.47-.9,1.43-.43,2.13.27.41.7.64,1.15.68.33.03.68-.05.98-.25.04-.03,2.33-1.4,5.03-2.2v8.2c-.06.85.56,1.59,1.41,1.67Z"/>
      <path class="cls-1" d="m12.84,12.01c.28.22.61.33.93.33.44,0,.88-.19,1.17-.56l3.87-4.85c.52-.65.41-1.59-.24-2.11-.64-.52-1.59-.41-2.11.24l-3.87,4.85c-.52.65-.41,1.59.24,2.11Z"/>
    </g>
  </g>
</svg>